# xmcd
#
# Track frame offsets:
#	150
#	12524
#	31125
#	47691
#	60961
#	74876
#	87793
#	113836
#	142889
#	155642
#	173723
#	189846
#	206976
#	223610
#	234306
#
# Disc length: 3367 seconds
# Revision: 0
# Processed by: cddbd v1.5.2PL0 Copyright (c) Steve Scherf et al.
# Submitted via: dBpowerAMP V12.0
#
DISCID=cc0d250f
DTITLE=Various Artist - The Blues Magazine: New Acustic Blues
DYEAR=2013
DGENRE=Blues
TTITLE0=Heritage Blues Orchestra - Chilly Jordan
TTITLE1=Jo Harman - I Shall Not Be Move
TTITLE2=Joe Bonamassa - Driving Towards The Daylight
TTITLE3=Claude Hay - Narrow Mind
TTITLE4=Mark Harrison - Georgia Greens
TTITLE5=Wooden Horse - Mean Old Frisco
TTITLE6=Anders Osborne - Louisiana Gold
TTITLE7=Stiv Cantarelli and The Silent Strangers - Dark Times Blues
TTITLE8=Craig Hughes - Left To Crawl
TTITLE9=P J O'Brien - Times Like These
TTITLE10=Half Deaf Clatch - Big Plans In A Small Town
TTITLE11=Richard Townend - Sailing
TTITLE12=Tom Attah - How Long Has It Been
TTITLE13=Pepe Belmonte - Foolish
TTITLE14=Lisa Mills - My Happy Song
EXTD=
EXTT0=
EXTT1=
EXTT2=
EXTT3=
EXTT4=
EXTT5=
EXTT6=
EXTT7=
EXTT8=
EXTT9=
EXTT10=
EXTT11=
EXTT12=
EXTT13=
EXTT14=
PLAYORDER=
